<svg aria-hidden="true" style="position: absolute; width: 0; height: 0; overflow: hidden;" version="1.1" xmlns="http://www.w3.org/2000/svg" xmlns:xlink="http://www.w3.org/1999/xlink">
<defs>
<symbol id="icon-nissan" viewBox="0 0 39 32">
<path d="M5.752 11.173c1.987-5.762 7.481-9.654 13.677-9.654s11.69 3.893 13.677 9.654v0.039h4.364v-0.506l-1.792-0.195c-1.13-0.117-1.364-0.623-1.675-1.246l-0.078-0.156c-2.611-5.528-8.3-9.11-14.495-9.11s-11.885 3.582-14.534 9.11l-0.078 0.156c-0.273 0.623-0.546 1.129-1.637 1.246l-1.831 0.195v0.506h4.364l0.039-0.039z"></path>
<path d="M33.145 20.789v0.039c-2.026 5.762-7.52 9.654-13.716 9.654s-11.69-3.893-13.677-9.654v-0.039h-4.403v0.506l1.831 0.195c1.13 0.117 1.364 0.623 1.676 1.246l0.078 0.156c2.572 5.528 8.3 9.11 14.495 9.11s11.885-3.581 14.534-9.11l0.078-0.156c0.312-0.623 0.546-1.090 1.676-1.246l1.831-0.195v-0.506h-4.403z"></path>
<path d="M9.18 13.976h-1.013v4.438h1.013v-4.438z"></path>
<path d="M5.79 18.375v-4.399h-0.974v3.309l-3.234-3.309h-1.247v4.399h0.974v-3.309l3.273 3.309h1.208z"></path>
<path d="M27.962 13.976l-2.728 4.438h1.169l0.468-0.779h3.156l0.468 0.779h1.169l-2.728-4.438h-0.974zM29.56 16.779h-2.182l1.091-1.791 1.091 1.791z"></path>
<path d="M22.468 17.479c-0.039 0-0.156 0-0.195 0h-4.091v0.895h4.13c0.039 0 0.273 0 0.312 0 0.857-0.078 1.208-0.74 1.208-1.363s-0.39-1.246-1.169-1.324c-0.117 0-0.234 0-0.312 0h-2.689c-0.117 0-0.195 0-0.312-0.039-0.195-0.039-0.312-0.195-0.273-0.389 0-0.195 0.117-0.35 0.312-0.389 0.078-0.039 0.195-0.039 0.273-0.039h3.897v-0.895h-3.936c-0.117 0-0.273 0-0.39 0.039-0.662 0.078-1.169 0.623-1.169 1.285 0 0.545 0.351 1.207 1.13 1.285 0.156 0 0.273 0.039 0.429 0h2.611c0.039 0 0.156 0 0.195 0 0.234 0.039 0.39 0.234 0.39 0.428 0 0.273-0.156 0.467-0.351 0.506z"></path>
<path d="M15.298 17.48c-0.039 0-0.156 0-0.195 0h-4.053v0.895h4.091c0.039 0 0.273 0 0.312 0 0.857-0.078 1.247-0.74 1.247-1.324s-0.39-1.246-1.169-1.324c-0.117 0-0.234 0-0.312 0h-2.689c-0.117 0-0.195 0-0.312-0.039-0.195-0.039-0.312-0.195-0.273-0.389 0-0.195 0.117-0.35 0.312-0.389 0.078-0.039 0.195-0.039 0.273-0.039h3.897v-0.895h-3.975c-0.117 0-0.273 0-0.39 0.039-0.662 0.078-1.169 0.623-1.169 1.285 0 0.545 0.351 1.207 1.13 1.285 0.156 0 0.273 0.039 0.429 0h2.611c0.039 0 0.156 0 0.195 0 0.234 0.039 0.39 0.234 0.39 0.428 0.039 0.234-0.156 0.428-0.351 0.467z"></path>
<path d="M38.522 18.375v-4.399h-0.974v3.309l-3.234-3.309h-1.247v4.399h0.974v-3.309l3.273 3.309h1.208z"></path>
<path d="M35.989 29.314c0.468 0 0.857 0.389 0.857 0.856s-0.39 0.856-0.857 0.856c-0.468 0-0.857-0.389-0.857-0.856 0-0.234 0.078-0.428 0.273-0.623 0.117-0.156 0.351-0.272 0.584-0.234zM35.989 30.832c0.195 0 0.351-0.078 0.468-0.195s0.195-0.311 0.195-0.467c0-0.35-0.312-0.662-0.662-0.623-0.351 0-0.662 0.311-0.662 0.662 0 0.311 0.273 0.623 0.662 0.623zM35.639 30.599v-0.856c0.117 0 0.195-0.039 0.312-0.039 0.156 0 0.39 0.039 0.39 0.234 0 0.117-0.078 0.195-0.195 0.195 0.078 0.039 0.117 0.117 0.156 0.195 0 0.078 0.039 0.156 0.078 0.195h-0.195c-0.039-0.078-0.039-0.156-0.078-0.195-0.039-0.117-0.117-0.117-0.273-0.117v0.35l-0.195 0.039zM35.834 30.093c0.156 0 0.312 0 0.312-0.117 0-0.078-0.039-0.117-0.195-0.117-0.039 0-0.078 0-0.117 0v0.234z"></path>
</symbol>
<symbol id="icon-hyundai" viewBox="0 0 63 32">
<path d="M31.253 32c17.252 0 31.253-7.187 31.253-16s-13.949-16-31.253-16c-17.252 0-31.253 7.187-31.253 16s13.949 16 31.253 16zM37.127 24.131c-0.524 1.207-1.416 3.725-3.461 4.826-0.629 0.315-1.363 0.472-2.098 0.472-0.157 0-0.262 0-0.315 0-5.296 0.052-10.54-0.682-15.627-2.151l-0.157-0.052c-0.42-0.157-0.629-0.315-0.629-0.577 0-0.105 0.052-0.21 0.052-0.262 0.052-0.105 0.105-0.157 0.157-0.21l0.262-0.262c0.996-0.892 4.143-3.148 10.068-5.351 2.412-0.997 4.877-1.731 7.394-2.361 1.626-0.367 7.499-1.259 4.352 5.928zM52.963 8.026c0.052-0.105 0.105-0.21 0.21-0.262s0.21-0.105 0.315-0.105c0.21 0 0.472 0.052 0.629 0.21 3.671 2.256 5.873 5.088 5.873 8.131 0 5.508-7.079 10.282-17.252 12.328-0.629 0.157-1.101 0.105-1.206 0-0.157-0.105-0.157-0.262 0-0.472 0.052-0.157 0.157-0.262 0.262-0.367 5.506-6.505 9.754-16.105 10.907-18.885 0.105-0.262 0.157-0.472 0.262-0.577zM25.485 7.816c0.524-1.207 1.416-3.777 3.461-4.826 0.629-0.315 1.363-0.472 2.098-0.472 0.157 0 0.262 0 0.315 0 5.296-0.052 10.54 0.682 15.627 2.151l0.157 0.052c0.42 0.157 0.629 0.315 0.629 0.577 0 0.105-0.052 0.21-0.052 0.262-0.052 0.105-0.105 0.157-0.157 0.21l-0.367 0.315c-0.996 0.892-4.090 3.148-10.016 5.403-2.412 0.997-4.877 1.784-7.394 2.361-1.521 0.315-7.394 1.207-4.3-6.033zM19.822 3.672c0.682-0.105 1.101-0.105 1.259 0 0.052 0.052 0.052 0.157 0.052 0.262s-0.052 0.157-0.052 0.262c-0.105 0.157-0.157 0.262-0.262 0.367-5.559 6.505-9.806 16.105-10.96 18.885-0.105 0.21-0.157 0.367-0.262 0.525-0.052 0.105-0.105 0.21-0.21 0.262s-0.21 0.105-0.315 0.105c-0.21 0-0.472-0.052-0.629-0.21-3.671-2.256-5.873-5.088-5.873-8.131 0-5.508 7.079-10.229 17.252-12.328z"></path>
</symbol>
<symbol id="icon-mercedes" viewBox="0 0 33 32">
<path d="M16.726 15.921l0.697-0.427 8.905 6.094-9.602-5.667zM16.209 15.583l-0.652-0.382 0.742-11.626-0.090 12.008zM15.422 15.538l-2.946 2.451 3.531-2.091-0.585-0.36z"></path>
<path d="M16.389 0.134c-8.77 0-15.876 7.106-15.876 15.876s7.106 15.876 15.876 15.876c8.77 0 15.876-7.106 15.876-15.876s-7.106-15.876-15.876-15.876zM16.389 31.010c-3.62 0-7.016-1.214-9.557-3.418-2.451-2.159-4.363-5.599-4.835-9.242 1.124 6.949 7.129 12.233 14.392 12.233 8.051 0 14.572-6.521 14.572-14.572 0-3.351-1.237-6.611-3.148-9.063 1.911 1.484 3.576 5.689 3.576 9.063 0.023 8.298-6.701 14.999-14.999 14.999zM15.017 14.864l1.282-13.155h0.112l0.135 13.852 2.204-1.327-2.204-12.526c7.826 0.067 14.145 6.454 14.145 14.28 0 2.519-0.652 4.88-1.799 6.949l-9.917-8.298-0.944 0.54 10.794 7.893c-0.022 0.045-0.045 0.090-0.090 0.135l-12.143-6.994v2.451l12.053 4.655c-2.496 4.16-7.061 6.949-12.256 6.949s-9.76-2.788-12.256-6.926l12.053-4.677v-2.474l-12.143 6.971c-0.022-0.045-0.045-0.090-0.090-0.135l10.749-7.871-0.944-0.54-9.895 8.253c-1.124-2.046-1.777-4.385-1.777-6.904 0-7.781 6.229-14.1 13.965-14.28l-1.934 12.661 0.9 0.517zM16.389 0.989c-8.275 0-14.999 6.724-14.999 14.999 0 3.373 1.214 6.544 3.081 9.31 0.63 1.192 1.304 1.912 2.226 2.878-3.576-2.856-5.892-7.264-5.892-12.188 0-8.613 6.971-15.584 15.584-15.584s15.719 7.286 15.449 15.584c-0.202-8.096-7.286-14.999-15.449-14.999z"></path>
</symbol>
<symbol id="icon-bmw" viewBox="0 0 32 32">
<path d="M15.957 30.454c-7.982 0-14.454-6.472-14.454-14.454s6.472-14.454 14.454-14.454c7.982 0 14.454 6.472 14.454 14.454s-6.472 14.454-14.454 14.454zM15.957 0.784c-8.406 0-15.216 6.81-15.216 15.216s6.81 15.216 15.216 15.216c8.406 0 15.216-6.81 15.216-15.216s-6.817-15.216-15.216-15.216zM15.957 30.577c1.97 0 3.876-0.388 5.674-1.143 1.733-0.733 3.294-1.783 4.631-3.121s2.387-2.898 3.121-4.631c0.762-1.798 1.143-3.703 1.143-5.674s-0.388-3.876-1.143-5.674c-0.733-1.733-1.783-3.293-3.121-4.631s-2.898-2.387-4.631-3.121c-1.798-0.762-3.703-1.143-5.674-1.143s-3.876 0.388-5.674 1.143c-1.733 0.733-3.293 1.783-4.631 3.121s-2.387 2.898-3.121 4.631c-0.762 1.798-1.143 3.703-1.143 5.674s0.388 3.876 1.143 5.674c0.734 1.733 1.783 3.294 3.121 4.631s2.898 2.387 4.631 3.121c1.798 0.755 3.703 1.143 5.674 1.143zM15.957 0.907c2.035 0 4.013 0.395 5.875 1.187 1.798 0.762 3.416 1.848 4.796 3.236 1.388 1.388 2.474 2.999 3.236 4.796 0.784 1.862 1.186 3.84 1.186 5.875s-0.396 4.013-1.186 5.875c-0.762 1.798-1.848 3.409-3.236 4.796s-2.999 2.474-4.796 3.236c-1.862 0.784-3.84 1.186-5.875 1.186s-4.013-0.396-5.875-1.186c-1.798-0.762-3.416-1.848-4.796-3.236s-2.474-2.999-3.236-4.796c-0.784-1.862-1.187-3.84-1.187-5.875s0.403-4.013 1.187-5.875c0.762-1.798 1.848-3.409 3.236-4.796s2.999-2.474 4.796-3.236c1.855-0.791 3.833-1.187 5.875-1.187z"></path>
<path d="M6.989 6.702c-0.187-0.158-0.482-0.165-0.611-0.007l-1.122 1.337 0.69 0.582 1.107-1.323c0.144-0.173 0.144-0.417-0.065-0.59zM8.348 8.248c0.158-0.187 0.129-0.475-0.094-0.662-0.201-0.165-0.496-0.122-0.626 0.036l-1.179 1.402 0.733 0.611 1.165-1.388z"></path>
<path d="M15.957 1.545c-7.982 0-14.454 6.472-14.454 14.454s6.472 14.454 14.454 14.454c7.982 0 14.454-6.472 14.454-14.454s-6.472-14.454-14.454-14.454zM13.742 2.077h1.151l1.043 2.725 1.035-2.725h1.151v3.818h-0.762v-2.668l-1.007 2.668h-0.834l-1.007-2.668v2.668h-0.762l-0.007-3.818zM4.106 8.362l1.862-2.222c0.388-0.46 0.928-0.827 1.438-0.396 0.158 0.137 0.223 0.18 0.417 0.525 0.043 0.122 0.079 0.352-0.007 0.568 0.446-0.273 0.92-0.187 1.23 0.115 0.475 0.46 0.403 0.992-0.043 1.524l-1.963 2.344-2.934-2.459zM15.957 25.693c-5.35 0-9.693-4.336-9.693-9.693 0-5.35 4.336-9.694 9.693-9.694 5.35 0 9.694 4.336 9.694 9.694-0.007 5.35-4.343 9.693-9.694 9.693zM24.917 10.685l-0.654-0.791 1.251-1.884-0.007-0.007-2.085 0.892-0.662-0.784 2.179-2.884 0.554 0.669-1.366 1.834 2.121-0.942 0.597 0.719-1.309 1.906 2.049-1.007 0.554 0.669-3.222 1.611z"></path>
<path d="M6.838 16h9.111v-9.111c-5.026 0-9.111 4.077-9.111 9.111zM15.956 16v9.111c5.034 0 9.111-4.077 9.111-9.111h-9.111z"></path>
</symbol>
<symbol id="icon-honda" viewBox="0 0 38 32">
<path d="M27.96 2.806c-0.923 3.881-1.221 5.701-1.906 8.507-0.685 2.746-1.221 5.254-2.114 6.448s-2.114 1.522-3.037 1.582c-0.447 0.090-0.744 0.090-1.667 0.090s-1.28 0-1.667-0.090c-0.834-0.090-2.055-0.388-3.037-1.582-0.923-1.224-1.429-3.731-2.114-6.448-0.685-2.806-1.072-4.627-1.906-8.507 0 0-0.834 0-1.28 0.090-0.536 0-0.923 0-1.37 0.090 0 0 0.536 8.060 0.744 11.403 0.238 3.582 0.685 9.552 1.072 14.119 0 0 0.744 0.149 1.965 0.149 1.221 0.149 1.816 0.239 1.816 0.239 0.536-1.97 1.221-4.776 1.906-6 0.595-0.985 1.518-1.075 2.055-1.134 0.834-0.090 1.518-0.149 1.816-0.149s0.983 0 1.816 0.149c0.536 0.090 1.429 0.149 2.055 1.134 0.744 1.224 1.37 3.94 1.906 6 0 0 0.536 0 1.816-0.090 1.221-0.090 1.965-0.149 1.965-0.149 0.387-4.567 0.834-10.567 1.072-14.119 0.238-3.403 0.744-11.403 0.744-11.403-0.447-0.090-0.834-0.090-1.37-0.149-0.357-0.179-1.28-0.179-1.28-0.179z"></path>
<path d="M35.94 16.478c-0.298 4.179-0.685 6.746-1.131 8.567-0.447 1.582-0.983 2.657-1.816 3.403-1.37 1.284-3.245 1.582-4.317 1.761-2.352 0.388-6.372 0.537-9.469 0.537s-7.116-0.149-9.469-0.537c-1.072-0.149-2.948-0.448-4.317-1.761-0.834-0.746-1.37-1.821-1.816-3.403-0.536-1.821-0.864-4.328-1.161-8.567-0.149-2.507-0.149-6.687 0.149-8.896 0.387-3.254 1.965-4.925 5.3-5.552 1.429-0.298 3.573-0.537 5.538-0.597 1.608-0.060 4.258-0.149 5.687-0.149s4.079 0.090 5.687 0.149c1.965 0.090 4.079 0.298 5.687 0.597 3.335 0.597 4.913 2.269 5.3 5.552 0.208 2.299 0.298 6.388 0.149 8.896zM37.757 7.672c-0.536-5.254-3.871-6.388-6.819-6.896-1.519-0.239-4.079-0.448-5.836-0.537-1.459-0.149-4.943-0.239-5.985-0.239-1.072 0-4.556 0.090-5.985 0.149-1.667 0.090-4.317 0.298-5.836 0.597-2.948 0.537-6.283 1.582-6.819 6.896-0.149 1.433-0.149 3.343-0.149 5.313 0.089 3.343 0.298 5.612 0.447 7.134 0.089 1.075 0.536 4.328 1.072 5.91 0.744 2.269 1.429 2.955 2.203 3.642 1.429 1.224 3.871 1.582 4.407 1.761 2.739 0.537 8.188 0.597 10.6 0.597s7.89-0.090 10.6-0.597c0.536-0.090 2.888-0.448 4.407-1.761 0.834-0.687 1.429-1.373 2.203-3.642 0.536-1.672 0.983-4.866 1.072-5.91 0.149-1.582 0.447-3.791 0.447-7.134 0.119-2.030 0.119-3.851-0.030-5.284z"></path>
</symbol>
<symbol id="icon-volkswagen" viewBox="0 0 33 32">
<path d="M16.381 30.114c-7.714 0-14.057-6.4-14.057-14.114 0-1.6 0.286-3.143 0.8-4.629l8.229 16c0.114 0.229 0.229 0.4 0.514 0.4s0.4-0.171 0.514-0.4l3.829-8.514c0.057-0.114 0.114-0.171 0.171-0.171 0.114 0 0.114 0.114 0.171 0.171l3.886 8.514c0.114 0.229 0.229 0.4 0.514 0.4s0.4-0.171 0.514-0.4l8.229-16c0.514 1.429 0.8 2.971 0.8 4.629-0.057 7.714-6.4 14.114-14.114 14.114zM16.381 12.343c-0.114 0-0.114-0.114-0.171-0.171l-4.4-9.486c1.429-0.514 2.971-0.8 4.571-0.8s3.143 0.286 4.571 0.8l-4.4 9.486c-0.057 0.057-0.057 0.171-0.171 0.171zM11.752 22.629c-0.114 0-0.114-0.114-0.171-0.171l-7.2-13.829c1.257-2.057 3.086-3.771 5.2-4.971l5.086 10.971c0.114 0.229 0.229 0.286 0.4 0.286h2.629c0.171 0 0.286-0.057 0.4-0.286l5.029-10.971c2.114 1.2 3.943 2.914 5.2 4.971l-7.143 13.829c-0.057 0.114-0.114 0.171-0.171 0.171-0.114 0-0.114-0.114-0.171-0.171l-2.743-6.057c-0.114-0.229-0.229-0.286-0.4-0.286h-2.629c-0.171 0-0.286 0.057-0.4 0.286l-2.743 6.057c-0.057 0.057-0.057 0.171-0.171 0.171zM16.381 32c8.857 0 16-7.143 16-16s-7.143-16-16-16c-8.857 0-16 7.143-16 16s7.143 16 16 16z"></path>
</symbol>
<symbol id="icon-tesla" viewBox="0 0 33 32">
<path d="M16.101 31.937l4.492-25.183c4.277 0 5.63 0.467 5.82 2.373 0 0 2.872-1.073 4.314-3.232-5.643-2.613-11.324-2.727-11.324-2.727l-3.315 4.027h0.013l-3.302-4.027c0 0-5.681 0.114-11.324 2.727 1.442 2.171 4.314 3.232 4.314 3.232 0.19-1.906 1.544-2.373 5.795-2.386l4.517 25.196z"></path>
<path d="M16.101 2.008c4.568-0.038 9.793 0.707 15.145 3.030 0.721-1.288 0.898-1.856 0.898-1.856-5.846-2.31-11.324-3.093-16.043-3.118-4.707 0.025-10.185 0.808-16.043 3.118 0 0 0.266 0.694 0.898 1.856 5.352-2.335 10.578-3.067 15.145-3.030z"></path>
</symbol>
<symbol id="icon-x" viewBox="0 0 32 32">
<path stroke-linejoin="round" stroke-linecap="round" stroke-miterlimit="4" stroke-width="2.4" d="M24 8l-16 16"></path>
<path stroke-linejoin="round" stroke-linecap="round" stroke-miterlimit="4" stroke-width="2.4" d="M8 8l16 16"></path>
</symbol>
<symbol id="icon-Vector-4" viewBox="0 0 4 32">
<path stroke-linejoin="miter" stroke-linecap="butt" stroke-miterlimit="4" stroke-width="2" d="M2 0v32"></path>
</symbol>
<symbol id="icon-down" viewBox="0 0 32 32">
<path stroke-linejoin="round" stroke-linecap="round" stroke-miterlimit="4" stroke-width="3.2" d="M8 12l8 8 8-8"></path>
</symbol>
<symbol id="icon-activeheart" viewBox="0 0 32 32">
<path fill="#3470ff" style="fill: var(--color1, #3470ff); stroke: var(--color1, #3470ff)" stroke="#3470ff" stroke-linejoin="round" stroke-linecap="round" stroke-miterlimit="4" stroke-width="1.7778" d="M27.787 6.147c-0.681-0.681-1.49-1.222-2.38-1.591s-1.844-0.559-2.807-0.559c-0.963 0-1.917 0.19-2.807 0.559s-1.698 0.909-2.38 1.591l-1.413 1.413-1.413-1.413c-1.376-1.376-3.241-2.148-5.187-2.148s-3.811 0.773-5.187 2.148c-1.376 1.376-2.148 3.241-2.148 5.187s0.773 3.811 2.148 5.187l11.787 11.787 11.787-11.787c0.681-0.681 1.222-1.49 1.591-2.38s0.559-1.844 0.559-2.807c0-0.963-0.19-1.917-0.559-2.807s-0.909-1.699-1.591-2.38z"></path>
</symbol>
<symbol id="icon-normalheart" viewBox="0 0 32 32">
<path fill="none" stroke="#fff" style="stroke: var(--color2, #fff)" stroke-linejoin="round" stroke-linecap="round" stroke-miterlimit="4" stroke-width="2.6667" d="M27.787 6.147c-0.681-0.681-1.49-1.222-2.38-1.591s-1.844-0.559-2.807-0.559c-0.963 0-1.917 0.19-2.807 0.559s-1.698 0.909-2.38 1.591l-1.413 1.413-1.413-1.413c-1.376-1.376-3.241-2.148-5.187-2.148s-3.811 0.773-5.187 2.148c-1.376 1.376-2.148 3.241-2.148 5.187s0.773 3.811 2.148 5.187l11.787 11.787 11.787-11.787c0.681-0.681 1.222-1.49 1.591-2.38s0.559-1.844 0.559-2.807c0-0.963-0.19-1.917-0.559-2.807s-0.909-1.699-1.591-2.38z"></path>
</symbol>
<symbol id="icon-face" viewBox="0 0 32 32">
<path fill="none" stroke="#000" stroke-linejoin="round" stroke-linecap="round" stroke-miterlimit="4" stroke-width="2.6667" d="M20 12h0.013M12 12h0.013M29.333 16c0 7.364-5.97 13.333-13.333 13.333s-13.333-5.97-13.333-13.333c0-7.364 5.97-13.333 13.333-13.333s13.333 5.97 13.333 13.333zM20.667 12c0 0.368-0.299 0.667-0.667 0.667s-0.667-0.298-0.667-0.667c0-0.368 0.299-0.667 0.667-0.667s0.667 0.298 0.667 0.667zM12.667 12c0 0.368-0.298 0.667-0.667 0.667s-0.667-0.298-0.667-0.667c0-0.368 0.298-0.667 0.667-0.667s0.667 0.298 0.667 0.667zM16 23.333c3.334 0 6-2.444 6-4.667h-12c0 2.223 2.666 4.667 6 4.667z"></path>
</symbol>
<symbol id="icon-search" viewBox="0 0 32 32">
<path fill="none" stroke="#000" stroke-linejoin="round" stroke-linecap="round" stroke-miterlimit="4" stroke-width="2.6667" d="M28 28l-4.667-4.667M26.667 15.333c0 6.259-5.074 11.333-11.333 11.333s-11.333-5.074-11.333-11.333c0-6.259 5.074-11.333 11.333-11.333s11.333 5.074 11.333 11.333z"></path>
</symbol>
<symbol id="icon-calendar" viewBox="0 0 32 32">
<path fill="none" stroke="#000" stroke-linejoin="round" stroke-linecap="round" stroke-miterlimit="4" stroke-width="2.6667" d="M28 13.333h-24M28 16.667v-4.933c0-2.24 0-3.36-0.436-4.216-0.383-0.753-0.995-1.365-1.748-1.748-0.856-0.436-1.976-0.436-4.216-0.436h-11.2c-2.24 0-3.36 0-4.216 0.436-0.753 0.383-1.365 0.995-1.748 1.748-0.436 0.856-0.436 1.976-0.436 4.216v11.2c0 2.24 0 3.36 0.436 4.216 0.383 0.753 0.995 1.365 1.748 1.748 0.856 0.436 1.976 0.436 4.216 0.436h5.6M21.333 2.667v5.333M10.667 2.667v5.333M19.333 25.333l2.667 2.667 6-6"></path>
</symbol>
<symbol id="icon-stars" viewBox="0 0 32 32">
<path  fill="#fff" stroke-linejoin="round" stroke-linecap="round" stroke-miterlimit="4" stroke-width="2.6667" d="M8.667 17.333l1.046 2.092c0.354 0.708 0.531 1.062 0.767 1.369 0.21 0.272 0.454 0.516 0.726 0.726 0.307 0.236 0.661 0.413 1.369 0.767l2.092 1.046-2.092 1.046c-0.708 0.354-1.062 0.531-1.369 0.767-0.272 0.21-0.516 0.454-0.726 0.726-0.236 0.307-0.413 0.661-0.767 1.369l-1.046 2.092-1.046-2.092c-0.354-0.708-0.531-1.062-0.767-1.369-0.21-0.272-0.454-0.516-0.726-0.726-0.307-0.236-0.661-0.413-1.369-0.767l-2.092-1.046 2.092-1.046c0.708-0.354 1.062-0.531 1.369-0.767 0.272-0.21 0.516-0.454 0.726-0.726 0.236-0.307 0.413-0.661 0.767-1.369l1.046-2.092z"></path>
<path fill="#fff" stroke-linejoin="round" stroke-linecap="round" stroke-miterlimit="4" stroke-width="2.6667" d="M20 2.667l1.571 4.086c0.376 0.978 0.564 1.466 0.856 1.878 0.259 0.364 0.577 0.683 0.942 0.942 0.411 0.292 0.9 0.48 1.878 0.856l4.086 1.572-4.086 1.571c-0.978 0.376-1.467 0.564-1.878 0.856-0.365 0.259-0.683 0.577-0.942 0.942-0.292 0.411-0.48 0.9-0.856 1.878l-1.571 4.086-1.571-4.086c-0.376-0.978-0.564-1.467-0.856-1.878-0.259-0.365-0.577-0.683-0.942-0.942-0.411-0.292-0.9-0.48-1.878-0.856l-4.086-1.571 4.086-1.572c0.978-0.376 1.467-0.564 1.878-0.856 0.365-0.259 0.683-0.578 0.942-0.942 0.292-0.411 0.48-0.9 0.856-1.878l1.571-4.086z"></path>
</symbol>
<symbol id="icon-check-verified" viewBox="0 0 32 32">
<path fill="#fff" stroke-linejoin="round" stroke-linecap="round" stroke-miterlimit="4" stroke-width="2.6667" d="M12 16l2.667 2.667 6-6M9.778 5.092c1.072-0.086 2.089-0.507 2.908-1.204 1.91-1.627 4.718-1.627 6.628 0 0.818 0.697 1.836 1.119 2.908 1.204 2.501 0.2 4.487 2.186 4.687 4.687 0.086 1.072 0.507 2.089 1.204 2.908 1.627 1.91 1.627 4.718 0 6.628-0.697 0.818-1.119 1.836-1.204 2.908-0.2 2.501-2.186 4.487-4.687 4.687-1.072 0.086-2.089 0.507-2.908 1.204-1.91 1.627-4.718 1.627-6.628 0-0.818-0.697-1.836-1.119-2.908-1.204-2.501-0.2-4.487-2.186-4.687-4.687-0.086-1.072-0.507-2.089-1.204-2.908-1.627-1.91-1.627-4.718 0-6.628 0.697-0.818 1.119-1.836 1.204-2.908 0.2-2.501 2.186-4.487 4.687-4.687z"></path>
</symbol>
<symbol id="icon-coins-hand" viewBox="0 0 32 32">
<path fill="#fff" stroke-linejoin="round" stroke-linecap="round" stroke-miterlimit="4" stroke-width="2.6667" d="M18.039 11.136c-0.763 0.544-1.697 0.864-2.706 0.864-2.577 0-4.667-2.089-4.667-4.667s2.089-4.667 4.667-4.667c1.671 0 3.136 0.878 3.961 2.198M8 26.783h3.48c0.454 0 0.905 0.054 1.345 0.162l3.677 0.894c0.798 0.194 1.629 0.213 2.435 0.057l4.066-0.791c1.074-0.209 2.062-0.724 2.836-1.477l2.877-2.798c0.821-0.798 0.821-2.092 0-2.891-0.74-0.72-1.911-0.801-2.748-0.19l-3.353 2.446c-0.48 0.351-1.064 0.54-1.665 0.54h-1.177c1.161 0 2.102-0.915 2.102-2.045v-0.409c0-0.938-0.656-1.756-1.592-1.983l-3.181-0.774c-0.518-0.125-1.048-0.189-1.581-0.189-1.286 0-3.615 1.065-3.615 1.065l-3.909 1.635M26.667 8.667c0 2.577-2.089 4.667-4.667 4.667s-4.667-2.089-4.667-4.667c0-2.577 2.089-4.667 4.667-4.667s4.667 2.089 4.667 4.667zM2.667 19.467v7.733c0 0.747 0 1.12 0.145 1.405 0.128 0.251 0.332 0.455 0.583 0.583 0.285 0.145 0.659 0.145 1.405 0.145h1.067c0.747 0 1.12 0 1.405-0.145 0.251-0.128 0.455-0.332 0.583-0.583 0.145-0.285 0.145-0.659 0.145-1.405v-7.733c0-0.747 0-1.12-0.145-1.405-0.128-0.251-0.332-0.455-0.583-0.583-0.285-0.145-0.659-0.145-1.405-0.145h-1.067c-0.747 0-1.12 0-1.405 0.145-0.251 0.128-0.455 0.332-0.583 0.583-0.145 0.285-0.145 0.659-0.145 1.405z"></path>
</symbol>
<symbol id="icon-phone" viewBox="0 0 32 32">
<path d="M31.282 25.289l-4.942-4.942c-0.984-0.98-2.614-0.95-3.633 0.068l-2.489 2.489c-0.157-0.087-0.32-0.178-0.491-0.274-1.572-0.871-3.724-2.065-5.989-4.331-2.271-2.271-3.466-4.426-4.34-5.999-0.093-0.167-0.181-0.327-0.268-0.48l2.492-2.491c1.020-1.020 1.049-2.65 0.066-3.633l-4.942-4.943c-0.982-0.982-2.613-0.952-3.633 0.068l-1.393 1.401 0.038 0.038c-0.467 0.596-0.858 1.283-1.148 2.024-0.268 0.705-0.435 1.379-0.511 2.053-0.652 5.41 1.82 10.354 8.528 17.063 9.274 9.273 16.747 8.573 17.069 8.538 0.703-0.084 1.375-0.252 2.059-0.517 0.735-0.287 1.422-0.677 2.017-1.142l0.030 0.027 1.411-1.382c1.018-1.020 1.048-2.65 0.066-3.635zM30.119 27.826l-0.622 0.621-0.248 0.238c-0.39 0.377-1.065 0.907-2.051 1.292-0.56 0.215-1.111 0.354-1.673 0.421-0.071 0.007-7.1 0.607-15.8-8.093-7.397-7.397-8.583-11.659-8.086-15.788 0.062-0.547 0.2-1.098 0.419-1.673 0.389-0.991 0.918-1.666 1.292-2.057l0.86-0.868c0.414-0.415 1.061-0.447 1.439-0.068l4.942 4.942c0.378 0.379 0.348 1.025-0.067 1.442l-3.337 3.334 0.308 0.518c0.171 0.289 0.352 0.613 0.546 0.964 0.918 1.656 2.174 3.922 4.6 6.345 2.419 2.421 4.682 3.676 6.333 4.591 0.357 0.197 0.682 0.379 0.975 0.553l0.52 0.308 3.335-3.336c0.416-0.414 1.064-0.445 1.443-0.067l4.939 4.941c0.378 0.379 0.348 1.025-0.067 1.44z"></path>
</symbol>
<symbol id="icon-email" viewBox="0 0 32 32">
<path d="M29.002 4h-26.003c-1.657 0-3 1.343-3 3v18c0 1.657 1.343 3 3 3h26.003c1.657 0 3-1.343 3-3v-18c0-1.657-1.343-3-3-3zM31.002 24.555l-9.459-9.459 9.459-6.028v15.487zM2.998 5h26.003c1.103 0 2 0.897 2 2v0.883l-13.768 8.774c-0.745 0.475-1.697 0.46-2.425-0.035l-13.811-9.387v-0.235c0-1.103 0.897-2 2-2zM0.998 8.443l9.593 6.52-9.593 9.593v-16.113zM29.002 27h-26.003c-0.824 0-1.532-0.501-1.838-1.214l10.26-10.26 2.827 1.922c0.543 0.369 1.171 0.554 1.8 0.554 0.598 0 1.196-0.167 1.723-0.502l2.921-1.861 10.148 10.148c-0.306 0.713-1.014 1.214-1.838 1.214z"></path>
</symbol>
<symbol id="icon-twitter" viewBox="0 0 32 32">
<path fill="none" style="fill: var(--color1, none)" opacity="0.1" d="M0 16c0-8.837 7.163-16 16-16s16 7.163 16 16c0 8.837-7.163 16-16 16s-16-7.163-16-16z"></path>
<path fill="none" style="fill: var(--color1, #fff)" d="M15.521 13.005l0.034 0.554-0.56-0.068c-2.037-0.26-3.816-1.141-5.327-2.621l-0.739-0.734-0.19 0.542c-0.403 1.209-0.146 2.486 0.694 3.344 0.448 0.475 0.347 0.542-0.425 0.26-0.269-0.090-0.504-0.158-0.526-0.124-0.078 0.079 0.19 1.107 0.403 1.514 0.291 0.565 0.884 1.119 1.533 1.446l0.548 0.26-0.649 0.011c-0.627 0-0.649 0.011-0.582 0.249 0.224 0.734 1.108 1.514 2.093 1.853l0.694 0.237-0.604 0.362c-0.895 0.52-1.947 0.813-2.999 0.836-0.504 0.011-0.918 0.057-0.918 0.090 0 0.113 1.365 0.746 2.16 0.994 2.384 0.734 5.215 0.418 7.342-0.836 1.511-0.893 3.022-2.666 3.727-4.384 0.381-0.915 0.761-2.587 0.761-3.39 0-0.52 0.034-0.588 0.66-1.209 0.369-0.362 0.716-0.757 0.783-0.87 0.112-0.215 0.101-0.215-0.47-0.023-0.951 0.339-1.085 0.294-0.615-0.215 0.347-0.362 0.761-1.017 0.761-1.209 0-0.034-0.168 0.023-0.358 0.124-0.201 0.113-0.649 0.282-0.985 0.384l-0.604 0.192-0.548-0.373c-0.302-0.203-0.727-0.429-0.951-0.497-0.571-0.158-1.444-0.136-1.959 0.045-1.399 0.508-2.283 1.819-2.182 3.254z"></path>
</symbol>
<symbol id="icon-youtube" viewBox="0 0 32 32">
<path fill="none" style="fill: var(--color1, none)" opacity="0.1" d="M0 16c0-8.837 7.163-16 16-16s16 7.163 16 16c0 8.837-7.163 16-16 16s-16-7.163-16-16z"></path>
<path fill="none" style="fill: var(--color1, #fff)" d="M22.668 10.5c0.734 0.201 1.313 0.795 1.509 1.549 0.357 1.367 0.357 4.218 0.357 4.218s0 2.851-0.357 4.218c-0.196 0.754-0.775 1.348-1.509 1.549-1.331 0.366-6.668 0.366-6.668 0.366s-5.337 0-6.668-0.366c-0.734-0.202-1.313-0.795-1.509-1.549-0.357-1.367-0.357-4.218-0.357-4.218s0-2.851 0.357-4.218c0.196-0.754 0.775-1.348 1.509-1.549 1.331-0.366 6.668-0.366 6.668-0.366s5.337 0 6.668 0.366zM14.4 13.867v5.333l4.267-2.667-4.267-2.667z"></path>
</symbol>
<symbol id="icon-instagram" viewBox="0 0 32 32">
<path fill="none" style="fill: var(--color1, none)" opacity="0.1" d="M0 16c0-8.837 7.163-16 16-16s16 7.163 16 16c0 8.837-7.163 16-16 16s-16-7.163-16-16z"></path>
<path fill="none" style="fill: var(--color1, #fff)" d="M16.001 7.467c-2.317 0-2.608 0.010-3.519 0.052-0.908 0.042-1.529 0.185-2.071 0.396-0.561 0.218-1.037 0.51-1.512 0.984s-0.766 0.95-0.985 1.511c-0.212 0.543-0.356 1.163-0.396 2.071-0.041 0.91-0.051 1.201-0.051 3.519s0.010 2.607 0.052 3.518c0.042 0.908 0.186 1.529 0.396 2.071 0.218 0.561 0.51 1.037 0.984 1.512s0.95 0.767 1.511 0.985c0.543 0.211 1.163 0.355 2.071 0.397 0.91 0.041 1.201 0.051 3.518 0.051s2.608-0.010 3.518-0.051c0.909-0.042 1.529-0.185 2.072-0.397 0.561-0.218 1.036-0.51 1.511-0.985s0.766-0.951 0.985-1.512c0.21-0.543 0.354-1.163 0.396-2.071 0.041-0.91 0.052-1.2 0.052-3.518s-0.011-2.608-0.052-3.519c-0.043-0.908-0.187-1.529-0.396-2.071-0.219-0.561-0.51-1.037-0.985-1.512s-0.949-0.766-1.511-0.984c-0.544-0.211-1.165-0.355-2.073-0.396-0.91-0.041-1.2-0.052-3.518-0.052h0.003zM15.235 9.005c0.227-0 0.481 0 0.766 0 2.278 0 2.548 0.008 3.448 0.049 0.832 0.038 1.284 0.177 1.584 0.294 0.398 0.155 0.682 0.34 0.981 0.638s0.484 0.583 0.639 0.981c0.117 0.3 0.256 0.752 0.294 1.584 0.041 0.9 0.050 1.17 0.050 3.447s-0.009 2.548-0.050 3.447c-0.038 0.832-0.177 1.284-0.294 1.584-0.155 0.398-0.34 0.682-0.639 0.98s-0.582 0.483-0.981 0.638c-0.3 0.117-0.752 0.256-1.584 0.294-0.899 0.041-1.17 0.050-3.448 0.050s-2.549-0.009-3.448-0.050c-0.832-0.038-1.284-0.177-1.585-0.294-0.398-0.155-0.683-0.34-0.981-0.638s-0.484-0.582-0.639-0.981c-0.117-0.3-0.256-0.752-0.294-1.584-0.041-0.9-0.049-1.17-0.049-3.449s0.008-2.548 0.049-3.447c0.038-0.832 0.177-1.284 0.294-1.584 0.155-0.398 0.34-0.683 0.639-0.981s0.583-0.484 0.981-0.639c0.301-0.117 0.753-0.256 1.585-0.294 0.787-0.036 1.092-0.046 2.683-0.048v0.002zM20.556 10.421c-0.565 0-1.024 0.458-1.024 1.024s0.459 1.024 1.024 1.024 1.024-0.459 1.024-1.024c0-0.565-0.459-1.024-1.024-1.024zM16.001 11.618c-2.42 0-4.382 1.962-4.382 4.382s1.962 4.381 4.382 4.381 4.382-1.961 4.382-4.381c0-2.42-1.961-4.382-4.382-4.382zM16.001 13.156c1.571 0 2.844 1.273 2.844 2.844s-1.274 2.845-2.844 2.845c-1.571 0-2.844-1.274-2.844-2.845s1.273-2.844 2.844-2.844z"></path>
</symbol>
<symbol id="icon-logo" viewBox="0 0 33 32">
<path d="M17.419 1.736c-0.102 0.712-0.198 1.38-0.215 1.487l-0.028 0.198 0.729 0.102c0.396 0.051 0.82 0.113 0.939 0.13 0.209 0.040 0.209 0.040 0.209-0.164 0-0.226 0.034-0.209-0.763-0.328-0.249-0.034-0.469-0.074-0.486-0.085-0.034-0.017 0.023-0.509 0.096-0.808 0.028-0.124 0.045-0.13 0.322-0.096 0.164 0.023 0.373 0.051 0.469 0.068 0.158 0.028 0.187 0.017 0.243-0.153 0.034-0.102 0.051-0.192 0.040-0.209-0.017-0.011-0.249-0.051-0.514-0.085l-0.492-0.057 0.040-0.317c0.045-0.413 0.079-0.514 0.158-0.514 0.040 0 0.311 0.040 0.605 0.085s0.543 0.068 0.554 0.057c0.011-0.011 0.028-0.102 0.028-0.204l0.011-0.187-0.707-0.096c-0.39-0.057-0.786-0.102-0.882-0.107h-0.17l-0.187 1.283z"></path>
<path d="M13.467 1.34c-0.107 0.023-0.13 0.051-0.102 0.147 0.204 0.678 0.254 1.374 0.13 1.623-0.040 0.074-0.141 0.164-0.226 0.192-0.288 0.102-0.351-0.045-0.695-1.6-0.028-0.119-0.045-0.13-0.266-0.096-0.13 0.023-0.243 0.045-0.254 0.057-0.023 0.028 0.192 0.972 0.334 1.459 0.124 0.424 0.3 0.611 0.582 0.611 0.514 0 0.933-0.294 1.052-0.741 0.079-0.283 0.045-0.933-0.073-1.379-0.079-0.3-0.147-0.339-0.481-0.271z"></path>
<path d="M7.921 2.392c-0.215 0.107-0.254 0.305-0.096 0.464 0.22 0.215 0.514 0.074 0.475-0.232-0.023-0.215-0.204-0.322-0.379-0.232z"></path>
<path d="M22.587 3.087c-0.294 0.107-0.509 0.322-0.69 0.684-0.164 0.339-0.192 0.639-0.079 0.905 0.136 0.322 0.656 0.526 0.95 0.367 0.175-0.096 0.181-0.090 0.147 0.153-0.034 0.237-0.017 0.254 0.254 0.317 0.158 0.034 0.181 0.023 0.181-0.079 0-0.209 0.164-0.599 0.481-1.159 0.17-0.305 0.311-0.571 0.311-0.588-0.006-0.062-0.481-0.424-0.741-0.565-0.271-0.141-0.492-0.153-0.814-0.034zM23.446 3.573c0.141 0.136 0.136 0.147-0.192 0.65-0.475 0.718-1.227 0.712-0.955-0.006 0.124-0.322 0.401-0.701 0.56-0.769 0.175-0.074 0.435-0.023 0.588 0.124z"></path>
<path d="M8.384 3.228c-0.102 0.068-0.187 0.141-0.187 0.164 0 0.074 0.842 1.425 0.978 1.566 0.147 0.164 0.464 0.17 0.661 0.023 0.119-0.096 0.13-0.124 0.068-0.254-0.051-0.119-0.090-0.141-0.22-0.113-0.153 0.028-0.181-0.006-0.554-0.633-0.548-0.922-0.52-0.899-0.746-0.752z"></path>
<path d="M5.354 5.642c-0.175 0.187-0.249 0.458-0.158 0.628 0.074 0.136 0.051 0.141-0.209 0.062-0.181-0.051-0.192-0.040-0.271 0.141-0.102 0.249-0.107 0.237 0.090 0.283 0.187 0.040 0.531 0.283 1.074 0.763 0.192 0.17 0.379 0.322 0.407 0.334 0.068 0.023 0.328-0.221 0.328-0.311 0-0.034-0.187-0.226-0.413-0.424-0.486-0.424-0.594-0.554-0.639-0.775-0.023-0.124 0-0.204 0.107-0.322l0.136-0.164-0.119-0.187c-0.062-0.102-0.136-0.187-0.153-0.187s-0.096 0.074-0.181 0.158z"></path>
<path d="M26.476 6.417c-0.215 0.215-0.221 0.283-0.096 0.916 0.119 0.622-0.367 0.684-0.582 0.074-0.090-0.254-0.113-0.277-0.243-0.243-0.209 0.045-0.232 0.090-0.158 0.305 0.107 0.322 0.339 0.616 0.565 0.735 0.175 0.090 0.254 0.102 0.452 0.057 0.401-0.090 0.56-0.396 0.447-0.865-0.085-0.379-0.079-0.582 0.023-0.667 0.141-0.119 0.277-0.034 0.424 0.26 0.136 0.271 0.147 0.283 0.3 0.237 0.181-0.062 0.192-0.147 0.045-0.43-0.294-0.571-0.82-0.735-1.176-0.379z"></path>
<path d="M2.261 9.679c-0.277 0.079-0.537 0.288-0.701 0.571-0.136 0.232-0.43 1.046-0.43 1.187 0 0.040 0.085 0.102 0.187 0.136 0.096 0.040 0.724 0.26 1.385 0.498 0.661 0.243 1.221 0.424 1.238 0.407 0.102-0.102 0.413-1.182 0.413-1.425-0.006-0.661-0.492-1.165-1.323-1.357-0.396-0.096-0.492-0.096-0.769-0.017zM3.336 10.403c0.317 0.158 0.548 0.407 0.577 0.622 0.023 0.164-0.096 0.729-0.17 0.803-0.034 0.034-2.030-0.656-2.098-0.718-0.062-0.062 0.311-0.673 0.469-0.769 0.243-0.158 0.859-0.124 1.221 0.062z"></path>
<path d="M28.664 10.476c-0.808 0.226-1.114 0.825-0.763 1.498 0.147 0.283 0.328 0.52 0.401 0.52 0.023 0 0.085-0.040 0.141-0.090 0.096-0.085 0.090-0.107-0.096-0.373-0.221-0.328-0.243-0.531-0.073-0.746 0.153-0.192 0.198-0.187 0.328 0.062 0.345 0.656 0.899 0.888 1.306 0.543 0.17-0.141 0.181-0.17 0.158-0.475-0.051-0.729-0.673-1.142-1.402-0.939zM29.535 11.030c0.254 0.204 0.17 0.52-0.141 0.52-0.147 0-0.226-0.045-0.373-0.215-0.277-0.322-0.249-0.413 0.158-0.418 0.13-0.006 0.26 0.040 0.356 0.113z"></path>
<path d="M14.225 13.693c-0.82 0.051-0.825 0.057-2.522 0.893l-0.882 0.441-0.096 0.531c-0.051 0.294-0.096 0.741-0.096 0.995v0.464h0.311c0.277 0 0.311-0.011 0.311-0.119 0-0.481 0.328-0.961 0.741-1.069 0.362-0.096 0.633-0.023 0.927 0.243 0.226 0.209 0.266 0.283 0.322 0.588l0.068 0.356h5.235v-0.305c0-0.52 0.339-0.882 0.865-0.927 0.582-0.045 1.035 0.334 1.097 0.916l0.034 0.317h0.328c0.175 0 0.362-0.017 0.413-0.034 0.181-0.068 0.073-1.029-0.147-1.357-0.17-0.249-0.701-0.503-1.498-0.707-0.367-0.096-0.859-0.266-1.091-0.373s-0.78-0.334-1.216-0.509c-1.046-0.418-1.419-0.458-3.104-0.345zM15.288 14.366c0.017 0.192 0.034 0.424 0.034 0.514v0.17l-0.746-0.040c-0.413-0.023-0.848-0.057-0.967-0.079l-0.209-0.034 0.181-0.277c0.317-0.475 0.543-0.582 1.295-0.594l0.373-0.006 0.040 0.345zM16.351 14.083c0.447 0.090 0.922 0.26 1.487 0.531 0.599 0.288 0.871 0.481 0.758 0.537-0.062 0.028-2.883-0.045-2.912-0.079-0.006 0-0.028-0.243-0.045-0.531l-0.045-0.52h0.232c0.124 0 0.362 0.028 0.526 0.062z"></path>
<path d="M1.883 14.858c-0.52 0.215-0.786 0.656-0.741 1.255 0.045 0.645 0.526 1.074 1.187 1.074 1.108 0 1.645-1.278 0.859-2.058-0.362-0.367-0.831-0.464-1.306-0.271z"></path>
<path d="M29.122 14.903c-1.142 0.571-0.718 2.295 0.565 2.29 1.001-0.006 1.56-1.057 1.001-1.9-0.339-0.514-0.989-0.673-1.566-0.39z"></path>
<path d="M11.958 16.023c-0.452 0.198-0.628 0.724-0.39 1.176 0.271 0.52 1.136 0.509 1.413-0.023 0.153-0.288 0.124-0.622-0.062-0.865-0.249-0.334-0.611-0.441-0.961-0.288zM12.506 16.548c0.057 0.051 0.102 0.153 0.102 0.226 0 0.158-0.187 0.356-0.339 0.356-0.147 0-0.339-0.192-0.339-0.351 0-0.283 0.356-0.43 0.577-0.232z"></path>
<path d="M19.257 16c-0.65 0.204-0.741 1.193-0.141 1.504 0.26 0.136 0.741 0.085 0.933-0.096 0.294-0.266 0.373-0.639 0.215-0.967-0.181-0.373-0.616-0.565-1.006-0.441zM19.743 16.548c0.3 0.266-0.096 0.752-0.418 0.509-0.158-0.124-0.187-0.351-0.051-0.486 0.141-0.141 0.328-0.153 0.469-0.023z"></path>
<path d="M3.929 19.471c-0.435 0.164-1.091 0.407-1.453 0.537-0.368 0.136-0.667 0.266-0.667 0.294s0.096 0.305 0.209 0.616c0.379 1.029 0.865 1.391 1.69 1.255 0.735-0.124 1.425-0.594 1.515-1.040 0.074-0.379 0.023-0.758-0.181-1.34-0.113-0.322-0.232-0.599-0.266-0.605-0.028-0.006-0.413 0.119-0.848 0.283zM4.721 20.184c0.085 0.283 0.090 0.373 0.034 0.56-0.124 0.424-0.628 0.763-1.249 0.854-0.254 0.040-0.351 0.028-0.548-0.068-0.198-0.090-0.271-0.175-0.418-0.475-0.102-0.198-0.164-0.379-0.147-0.396 0.034-0.040 2.081-0.797 2.165-0.808 0.034-0.006 0.107 0.147 0.164 0.334z"></path>
<path d="M28.178 19.556c-0.373 0.158-0.588 0.758-0.447 1.244 0.204 0.673 1.306 1.142 1.843 0.78 0.351-0.237 0.56-0.707 0.56-1.255 0-0.187-0.011-0.198-0.198-0.198-0.192 0-0.198 0.006-0.198 0.209 0 0.531-0.192 0.808-0.554 0.808-0.187 0-0.192-0.006-0.147-0.158 0.079-0.237 0.062-0.939-0.023-1.091-0.153-0.277-0.571-0.447-0.837-0.339zM28.568 20.15c0.124 0.096 0.181 0.407 0.13 0.678-0.040 0.198-0.040 0.204-0.192 0.124-0.3-0.158-0.43-0.311-0.43-0.509 0-0.334 0.249-0.481 0.492-0.294z"></path>
<path d="M25.951 23.644c-0.102 0.073-0.266 0.226-0.362 0.345-0.226 0.283-0.243 0.695-0.034 0.916 0.243 0.26 0.712 0.283 1.046 0.051 0.17-0.119 0.52-0.102 0.594 0.028 0.090 0.175-0.034 0.373-0.345 0.543-0.153 0.079-0.277 0.158-0.277 0.164 0 0.011 0.040 0.096 0.090 0.192l0.085 0.181 0.215-0.107c0.113-0.062 0.311-0.221 0.441-0.362 0.373-0.407 0.39-0.803 0.040-1.114-0.243-0.209-0.418-0.215-0.882-0.028-0.192 0.079-0.39 0.141-0.441 0.141-0.102 0-0.283-0.17-0.283-0.26 0-0.073 0.271-0.328 0.441-0.413 0.119-0.062 0.119-0.073 0.040-0.232-0.107-0.204-0.13-0.204-0.367-0.045z"></path>
<path d="M6.027 24.198c-0.085 0.192-0.509 0.645-1.091 1.159-0.136 0.113-0.243 0.232-0.243 0.26s0.074 0.13 0.158 0.226l0.158 0.181 0.509-0.452c0.277-0.249 0.56-0.481 0.628-0.515 0.209-0.113 0.413-0.079 0.577 0.096 0.153 0.164 0.164 0.164 0.322 0.085 0.254-0.13 0.277-0.175 0.17-0.334-0.13-0.198-0.452-0.328-0.69-0.288l-0.181 0.040 0.107-0.209c0.119-0.237 0.085-0.317-0.17-0.407-0.147-0.051-0.164-0.040-0.254 0.158z"></path>
<path d="M9.758 25.928c-0.113 0.113-0.119 0.384-0.006 0.475 0.124 0.102 0.373 0.085 0.464-0.034 0.232-0.317-0.181-0.718-0.458-0.441z"></path>
<path d="M22.66 26.601c-0.803 0.334-1.108 0.871-0.865 1.549 0.113 0.328 0.401 0.729 0.611 0.859 0.509 0.305 1.221-0.062 1.227-0.628 0.006-0.164 0.017-0.181 0.073-0.113 0.073 0.096 0.328 0.283 0.379 0.283 0.023 0 0.090-0.073 0.158-0.17l0.124-0.164-0.243-0.243c-0.13-0.136-0.407-0.531-0.605-0.876-0.215-0.373-0.401-0.639-0.452-0.633-0.045 0-0.232 0.062-0.407 0.136zM23.056 27.404c0.254 0.509 0.322 0.786 0.237 1.012-0.181 0.464-0.611 0.277-0.933-0.401-0.232-0.492-0.181-0.735 0.187-0.927 0.113-0.062 0.226-0.113 0.243-0.119 0.023 0 0.141 0.198 0.266 0.435z"></path>
<path d="M9.255 26.81c-0.045 0.073-0.22 0.356-0.39 0.639-0.622 1.006-0.65 1.108-0.396 1.38 0.226 0.243 0.39 0.277 0.475 0.090 0.051-0.107 0.051-0.158 0-0.209-0.13-0.13-0.096-0.209 0.588-1.312l0.271-0.441-0.153-0.136c-0.198-0.17-0.3-0.17-0.396-0.011z"></path>
<path d="M17.781 27.539c-0.373 0.057-0.695 0.102-0.718 0.102-0.028 0.006-0.045 0.062-0.045 0.13 0 0.175 0.401 3.008 0.43 3.036 0.011 0.011 0.447-0.040 0.972-0.113l0.944-0.136-0.017-0.192c-0.006-0.107-0.023-0.204-0.034-0.215s-0.277 0.017-0.588 0.068c-0.317 0.045-0.622 0.085-0.684 0.085-0.113 0-0.136-0.073-0.204-0.684l-0.040-0.317 0.362-0.040c0.667-0.079 0.667-0.079 0.667-0.322s0.079-0.226-0.707-0.113c-0.187 0.028-0.356 0.034-0.379 0.011-0.023-0.017-0.057-0.215-0.079-0.435l-0.040-0.407 0.503-0.062c0.825-0.113 0.831-0.113 0.792-0.249-0.017-0.068-0.034-0.158-0.034-0.198 0-0.090-0.254-0.079-1.102 0.051z"></path>
<path d="M12.444 28.252c-0.175 0.656-0.345 1.464-0.345 1.628 0 0.447 0.277 0.656 0.871 0.673 0.43 0.006 0.684-0.136 0.927-0.52 0.283-0.441 0.565-1.47 0.43-1.555-0.028-0.017-0.147-0.045-0.26-0.068-0.204-0.040-0.209-0.040-0.243 0.181-0.017 0.119-0.096 0.424-0.175 0.684-0.164 0.548-0.441 0.916-0.695 0.916-0.345 0-0.362-0.209-0.113-1.261 0.181-0.769 0.175-0.825-0.073-0.831-0.051 0-0.13-0.017-0.181-0.034-0.062-0.023-0.096 0.028-0.141 0.187z"></path>
</symbol>
</defs>
</svg>
