<svg aria-hidden="true" style="position: absolute; width: 0; height: 0; overflow: hidden;" version="1.1" xmlns="http://www.w3.org/2000/svg" xmlns:xlink="http://www.w3.org/1999/xlink">
<defs>
<symbol id="icon-nissan" viewBox="0 0 39 32">
<path d="M5.752 11.173c1.987-5.762 7.481-9.654 13.677-9.654s11.69 3.893 13.677 9.654v0.039h4.364v-0.506l-1.792-0.195c-1.13-0.117-1.364-0.623-1.675-1.246l-0.078-0.156c-2.611-5.528-8.3-9.11-14.495-9.11s-11.885 3.582-14.534 9.11l-0.078 0.156c-0.273 0.623-0.546 1.129-1.637 1.246l-1.831 0.195v0.506h4.364l0.039-0.039z"></path>
<path d="M33.145 20.789v0.039c-2.026 5.762-7.52 9.654-13.716 9.654s-11.69-3.893-13.677-9.654v-0.039h-4.403v0.506l1.831 0.195c1.13 0.117 1.364 0.623 1.676 1.246l0.078 0.156c2.572 5.528 8.3 9.11 14.495 9.11s11.885-3.581 14.534-9.11l0.078-0.156c0.312-0.623 0.546-1.090 1.676-1.246l1.831-0.195v-0.506h-4.403z"></path>
<path d="M9.18 13.976h-1.013v4.438h1.013v-4.438z"></path>
<path d="M5.79 18.375v-4.399h-0.974v3.309l-3.234-3.309h-1.247v4.399h0.974v-3.309l3.273 3.309h1.208z"></path>
<path d="M27.962 13.976l-2.728 4.438h1.169l0.468-0.779h3.156l0.468 0.779h1.169l-2.728-4.438h-0.974zM29.56 16.779h-2.182l1.091-1.791 1.091 1.791z"></path>
<path d="M22.468 17.479c-0.039 0-0.156 0-0.195 0h-4.091v0.895h4.13c0.039 0 0.273 0 0.312 0 0.857-0.078 1.208-0.74 1.208-1.363s-0.39-1.246-1.169-1.324c-0.117 0-0.234 0-0.312 0h-2.689c-0.117 0-0.195 0-0.312-0.039-0.195-0.039-0.312-0.195-0.273-0.389 0-0.195 0.117-0.35 0.312-0.389 0.078-0.039 0.195-0.039 0.273-0.039h3.897v-0.895h-3.936c-0.117 0-0.273 0-0.39 0.039-0.662 0.078-1.169 0.623-1.169 1.285 0 0.545 0.351 1.207 1.13 1.285 0.156 0 0.273 0.039 0.429 0h2.611c0.039 0 0.156 0 0.195 0 0.234 0.039 0.39 0.234 0.39 0.428 0 0.273-0.156 0.467-0.351 0.506z"></path>
<path d="M15.298 17.48c-0.039 0-0.156 0-0.195 0h-4.053v0.895h4.091c0.039 0 0.273 0 0.312 0 0.857-0.078 1.247-0.74 1.247-1.324s-0.39-1.246-1.169-1.324c-0.117 0-0.234 0-0.312 0h-2.689c-0.117 0-0.195 0-0.312-0.039-0.195-0.039-0.312-0.195-0.273-0.389 0-0.195 0.117-0.35 0.312-0.389 0.078-0.039 0.195-0.039 0.273-0.039h3.897v-0.895h-3.975c-0.117 0-0.273 0-0.39 0.039-0.662 0.078-1.169 0.623-1.169 1.285 0 0.545 0.351 1.207 1.13 1.285 0.156 0 0.273 0.039 0.429 0h2.611c0.039 0 0.156 0 0.195 0 0.234 0.039 0.39 0.234 0.39 0.428 0.039 0.234-0.156 0.428-0.351 0.467z"></path>
<path d="M38.522 18.375v-4.399h-0.974v3.309l-3.234-3.309h-1.247v4.399h0.974v-3.309l3.273 3.309h1.208z"></path>
<path d="M35.989 29.314c0.468 0 0.857 0.389 0.857 0.856s-0.39 0.856-0.857 0.856c-0.468 0-0.857-0.389-0.857-0.856 0-0.234 0.078-0.428 0.273-0.623 0.117-0.156 0.351-0.272 0.584-0.234zM35.989 30.832c0.195 0 0.351-0.078 0.468-0.195s0.195-0.311 0.195-0.467c0-0.35-0.312-0.662-0.662-0.623-0.351 0-0.662 0.311-0.662 0.662 0 0.311 0.273 0.623 0.662 0.623zM35.639 30.599v-0.856c0.117 0 0.195-0.039 0.312-0.039 0.156 0 0.39 0.039 0.39 0.234 0 0.117-0.078 0.195-0.195 0.195 0.078 0.039 0.117 0.117 0.156 0.195 0 0.078 0.039 0.156 0.078 0.195h-0.195c-0.039-0.078-0.039-0.156-0.078-0.195-0.039-0.117-0.117-0.117-0.273-0.117v0.35l-0.195 0.039zM35.834 30.093c0.156 0 0.312 0 0.312-0.117 0-0.078-0.039-0.117-0.195-0.117-0.039 0-0.078 0-0.117 0v0.234z"></path>
</symbol>
<symbol id="icon-hyundai" viewBox="0 0 63 32">
<path d="M31.253 32c17.252 0 31.253-7.187 31.253-16s-13.949-16-31.253-16c-17.252 0-31.253 7.187-31.253 16s13.949 16 31.253 16zM37.127 24.131c-0.524 1.207-1.416 3.725-3.461 4.826-0.629 0.315-1.363 0.472-2.098 0.472-0.157 0-0.262 0-0.315 0-5.296 0.052-10.54-0.682-15.627-2.151l-0.157-0.052c-0.42-0.157-0.629-0.315-0.629-0.577 0-0.105 0.052-0.21 0.052-0.262 0.052-0.105 0.105-0.157 0.157-0.21l0.262-0.262c0.996-0.892 4.143-3.148 10.068-5.351 2.412-0.997 4.877-1.731 7.394-2.361 1.626-0.367 7.499-1.259 4.352 5.928zM52.963 8.026c0.052-0.105 0.105-0.21 0.21-0.262s0.21-0.105 0.315-0.105c0.21 0 0.472 0.052 0.629 0.21 3.671 2.256 5.873 5.088 5.873 8.131 0 5.508-7.079 10.282-17.252 12.328-0.629 0.157-1.101 0.105-1.206 0-0.157-0.105-0.157-0.262 0-0.472 0.052-0.157 0.157-0.262 0.262-0.367 5.506-6.505 9.754-16.105 10.907-18.885 0.105-0.262 0.157-0.472 0.262-0.577zM25.485 7.816c0.524-1.207 1.416-3.777 3.461-4.826 0.629-0.315 1.363-0.472 2.098-0.472 0.157 0 0.262 0 0.315 0 5.296-0.052 10.54 0.682 15.627 2.151l0.157 0.052c0.42 0.157 0.629 0.315 0.629 0.577 0 0.105-0.052 0.21-0.052 0.262-0.052 0.105-0.105 0.157-0.157 0.21l-0.367 0.315c-0.996 0.892-4.090 3.148-10.016 5.403-2.412 0.997-4.877 1.784-7.394 2.361-1.521 0.315-7.394 1.207-4.3-6.033zM19.822 3.672c0.682-0.105 1.101-0.105 1.259 0 0.052 0.052 0.052 0.157 0.052 0.262s-0.052 0.157-0.052 0.262c-0.105 0.157-0.157 0.262-0.262 0.367-5.559 6.505-9.806 16.105-10.96 18.885-0.105 0.21-0.157 0.367-0.262 0.525-0.052 0.105-0.105 0.21-0.21 0.262s-0.21 0.105-0.315 0.105c-0.21 0-0.472-0.052-0.629-0.21-3.671-2.256-5.873-5.088-5.873-8.131 0-5.508 7.079-10.229 17.252-12.328z"></path>
</symbol>
<symbol id="icon-mercedes" viewBox="0 0 33 32">
<path d="M16.726 15.921l0.697-0.427 8.905 6.094-9.602-5.667zM16.209 15.583l-0.652-0.382 0.742-11.626-0.090 12.008zM15.422 15.538l-2.946 2.451 3.531-2.091-0.585-0.36z"></path>
<path d="M16.389 0.134c-8.77 0-15.876 7.106-15.876 15.876s7.106 15.876 15.876 15.876c8.77 0 15.876-7.106 15.876-15.876s-7.106-15.876-15.876-15.876zM16.389 31.010c-3.62 0-7.016-1.214-9.557-3.418-2.451-2.159-4.363-5.599-4.835-9.242 1.124 6.949 7.129 12.233 14.392 12.233 8.051 0 14.572-6.521 14.572-14.572 0-3.351-1.237-6.611-3.148-9.063 1.911 1.484 3.576 5.689 3.576 9.063 0.023 8.298-6.701 14.999-14.999 14.999zM15.017 14.864l1.282-13.155h0.112l0.135 13.852 2.204-1.327-2.204-12.526c7.826 0.067 14.145 6.454 14.145 14.28 0 2.519-0.652 4.88-1.799 6.949l-9.917-8.298-0.944 0.54 10.794 7.893c-0.022 0.045-0.045 0.090-0.090 0.135l-12.143-6.994v2.451l12.053 4.655c-2.496 4.16-7.061 6.949-12.256 6.949s-9.76-2.788-12.256-6.926l12.053-4.677v-2.474l-12.143 6.971c-0.022-0.045-0.045-0.090-0.090-0.135l10.749-7.871-0.944-0.54-9.895 8.253c-1.124-2.046-1.777-4.385-1.777-6.904 0-7.781 6.229-14.1 13.965-14.28l-1.934 12.661 0.9 0.517zM16.389 0.989c-8.275 0-14.999 6.724-14.999 14.999 0 3.373 1.214 6.544 3.081 9.31 0.63 1.192 1.304 1.912 2.226 2.878-3.576-2.856-5.892-7.264-5.892-12.188 0-8.613 6.971-15.584 15.584-15.584s15.719 7.286 15.449 15.584c-0.202-8.096-7.286-14.999-15.449-14.999z"></path>
</symbol>
<symbol id="icon-bmw" viewBox="0 0 32 32">
<path d="M15.957 30.454c-7.982 0-14.454-6.472-14.454-14.454s6.472-14.454 14.454-14.454c7.982 0 14.454 6.472 14.454 14.454s-6.472 14.454-14.454 14.454zM15.957 0.784c-8.406 0-15.216 6.81-15.216 15.216s6.81 15.216 15.216 15.216c8.406 0 15.216-6.81 15.216-15.216s-6.817-15.216-15.216-15.216zM15.957 30.577c1.97 0 3.876-0.388 5.674-1.143 1.733-0.733 3.294-1.783 4.631-3.121s2.387-2.898 3.121-4.631c0.762-1.798 1.143-3.703 1.143-5.674s-0.388-3.876-1.143-5.674c-0.733-1.733-1.783-3.293-3.121-4.631s-2.898-2.387-4.631-3.121c-1.798-0.762-3.703-1.143-5.674-1.143s-3.876 0.388-5.674 1.143c-1.733 0.733-3.293 1.783-4.631 3.121s-2.387 2.898-3.121 4.631c-0.762 1.798-1.143 3.703-1.143 5.674s0.388 3.876 1.143 5.674c0.734 1.733 1.783 3.294 3.121 4.631s2.898 2.387 4.631 3.121c1.798 0.755 3.703 1.143 5.674 1.143zM15.957 0.907c2.035 0 4.013 0.395 5.875 1.187 1.798 0.762 3.416 1.848 4.796 3.236 1.388 1.388 2.474 2.999 3.236 4.796 0.784 1.862 1.186 3.84 1.186 5.875s-0.396 4.013-1.186 5.875c-0.762 1.798-1.848 3.409-3.236 4.796s-2.999 2.474-4.796 3.236c-1.862 0.784-3.84 1.186-5.875 1.186s-4.013-0.396-5.875-1.186c-1.798-0.762-3.416-1.848-4.796-3.236s-2.474-2.999-3.236-4.796c-0.784-1.862-1.187-3.84-1.187-5.875s0.403-4.013 1.187-5.875c0.762-1.798 1.848-3.409 3.236-4.796s2.999-2.474 4.796-3.236c1.855-0.791 3.833-1.187 5.875-1.187z"></path>
<path d="M6.989 6.702c-0.187-0.158-0.482-0.165-0.611-0.007l-1.122 1.337 0.69 0.582 1.107-1.323c0.144-0.173 0.144-0.417-0.065-0.59zM8.348 8.248c0.158-0.187 0.129-0.475-0.094-0.662-0.201-0.165-0.496-0.122-0.626 0.036l-1.179 1.402 0.733 0.611 1.165-1.388z"></path>
<path d="M15.957 1.545c-7.982 0-14.454 6.472-14.454 14.454s6.472 14.454 14.454 14.454c7.982 0 14.454-6.472 14.454-14.454s-6.472-14.454-14.454-14.454zM13.742 2.077h1.151l1.043 2.725 1.035-2.725h1.151v3.818h-0.762v-2.668l-1.007 2.668h-0.834l-1.007-2.668v2.668h-0.762l-0.007-3.818zM4.106 8.362l1.862-2.222c0.388-0.46 0.928-0.827 1.438-0.396 0.158 0.137 0.223 0.18 0.417 0.525 0.043 0.122 0.079 0.352-0.007 0.568 0.446-0.273 0.92-0.187 1.23 0.115 0.475 0.46 0.403 0.992-0.043 1.524l-1.963 2.344-2.934-2.459zM15.957 25.693c-5.35 0-9.693-4.336-9.693-9.693 0-5.35 4.336-9.694 9.693-9.694 5.35 0 9.694 4.336 9.694 9.694-0.007 5.35-4.343 9.693-9.694 9.693zM24.917 10.685l-0.654-0.791 1.251-1.884-0.007-0.007-2.085 0.892-0.662-0.784 2.179-2.884 0.554 0.669-1.366 1.834 2.121-0.942 0.597 0.719-1.309 1.906 2.049-1.007 0.554 0.669-3.222 1.611z"></path>
<path d="M6.838 16h9.111v-9.111c-5.026 0-9.111 4.077-9.111 9.111zM15.956 16v9.111c5.034 0 9.111-4.077 9.111-9.111h-9.111z"></path>
</symbol>
<symbol id="icon-honda" viewBox="0 0 38 32">
<path d="M27.96 2.806c-0.923 3.881-1.221 5.701-1.906 8.507-0.685 2.746-1.221 5.254-2.114 6.448s-2.114 1.522-3.037 1.582c-0.447 0.090-0.744 0.090-1.667 0.090s-1.28 0-1.667-0.090c-0.834-0.090-2.055-0.388-3.037-1.582-0.923-1.224-1.429-3.731-2.114-6.448-0.685-2.806-1.072-4.627-1.906-8.507 0 0-0.834 0-1.28 0.090-0.536 0-0.923 0-1.37 0.090 0 0 0.536 8.060 0.744 11.403 0.238 3.582 0.685 9.552 1.072 14.119 0 0 0.744 0.149 1.965 0.149 1.221 0.149 1.816 0.239 1.816 0.239 0.536-1.97 1.221-4.776 1.906-6 0.595-0.985 1.518-1.075 2.055-1.134 0.834-0.090 1.518-0.149 1.816-0.149s0.983 0 1.816 0.149c0.536 0.090 1.429 0.149 2.055 1.134 0.744 1.224 1.37 3.94 1.906 6 0 0 0.536 0 1.816-0.090 1.221-0.090 1.965-0.149 1.965-0.149 0.387-4.567 0.834-10.567 1.072-14.119 0.238-3.403 0.744-11.403 0.744-11.403-0.447-0.090-0.834-0.090-1.37-0.149-0.357-0.179-1.28-0.179-1.28-0.179z"></path>
<path d="M35.94 16.478c-0.298 4.179-0.685 6.746-1.131 8.567-0.447 1.582-0.983 2.657-1.816 3.403-1.37 1.284-3.245 1.582-4.317 1.761-2.352 0.388-6.372 0.537-9.469 0.537s-7.116-0.149-9.469-0.537c-1.072-0.149-2.948-0.448-4.317-1.761-0.834-0.746-1.37-1.821-1.816-3.403-0.536-1.821-0.864-4.328-1.161-8.567-0.149-2.507-0.149-6.687 0.149-8.896 0.387-3.254 1.965-4.925 5.3-5.552 1.429-0.298 3.573-0.537 5.538-0.597 1.608-0.060 4.258-0.149 5.687-0.149s4.079 0.090 5.687 0.149c1.965 0.090 4.079 0.298 5.687 0.597 3.335 0.597 4.913 2.269 5.3 5.552 0.208 2.299 0.298 6.388 0.149 8.896zM37.757 7.672c-0.536-5.254-3.871-6.388-6.819-6.896-1.519-0.239-4.079-0.448-5.836-0.537-1.459-0.149-4.943-0.239-5.985-0.239-1.072 0-4.556 0.090-5.985 0.149-1.667 0.090-4.317 0.298-5.836 0.597-2.948 0.537-6.283 1.582-6.819 6.896-0.149 1.433-0.149 3.343-0.149 5.313 0.089 3.343 0.298 5.612 0.447 7.134 0.089 1.075 0.536 4.328 1.072 5.91 0.744 2.269 1.429 2.955 2.203 3.642 1.429 1.224 3.871 1.582 4.407 1.761 2.739 0.537 8.188 0.597 10.6 0.597s7.89-0.090 10.6-0.597c0.536-0.090 2.888-0.448 4.407-1.761 0.834-0.687 1.429-1.373 2.203-3.642 0.536-1.672 0.983-4.866 1.072-5.91 0.149-1.582 0.447-3.791 0.447-7.134 0.119-2.030 0.119-3.851-0.030-5.284z"></path>
</symbol>
<symbol id="icon-volkswagen" viewBox="0 0 33 32">
<path d="M16.381 30.114c-7.714 0-14.057-6.4-14.057-14.114 0-1.6 0.286-3.143 0.8-4.629l8.229 16c0.114 0.229 0.229 0.4 0.514 0.4s0.4-0.171 0.514-0.4l3.829-8.514c0.057-0.114 0.114-0.171 0.171-0.171 0.114 0 0.114 0.114 0.171 0.171l3.886 8.514c0.114 0.229 0.229 0.4 0.514 0.4s0.4-0.171 0.514-0.4l8.229-16c0.514 1.429 0.8 2.971 0.8 4.629-0.057 7.714-6.4 14.114-14.114 14.114zM16.381 12.343c-0.114 0-0.114-0.114-0.171-0.171l-4.4-9.486c1.429-0.514 2.971-0.8 4.571-0.8s3.143 0.286 4.571 0.8l-4.4 9.486c-0.057 0.057-0.057 0.171-0.171 0.171zM11.752 22.629c-0.114 0-0.114-0.114-0.171-0.171l-7.2-13.829c1.257-2.057 3.086-3.771 5.2-4.971l5.086 10.971c0.114 0.229 0.229 0.286 0.4 0.286h2.629c0.171 0 0.286-0.057 0.4-0.286l5.029-10.971c2.114 1.2 3.943 2.914 5.2 4.971l-7.143 13.829c-0.057 0.114-0.114 0.171-0.171 0.171-0.114 0-0.114-0.114-0.171-0.171l-2.743-6.057c-0.114-0.229-0.229-0.286-0.4-0.286h-2.629c-0.171 0-0.286 0.057-0.4 0.286l-2.743 6.057c-0.057 0.057-0.057 0.171-0.171 0.171zM16.381 32c8.857 0 16-7.143 16-16s-7.143-16-16-16c-8.857 0-16 7.143-16 16s7.143 16 16 16z"></path>
</symbol>
<symbol id="icon-tesla" viewBox="0 0 33 32">
<path d="M16.101 31.937l4.492-25.183c4.277 0 5.63 0.467 5.82 2.373 0 0 2.872-1.073 4.314-3.232-5.643-2.613-11.324-2.727-11.324-2.727l-3.315 4.027h0.013l-3.302-4.027c0 0-5.681 0.114-11.324 2.727 1.442 2.171 4.314 3.232 4.314 3.232 0.19-1.906 1.544-2.373 5.795-2.386l4.517 25.196z"></path>
<path d="M16.101 2.008c4.568-0.038 9.793 0.707 15.145 3.030 0.721-1.288 0.898-1.856 0.898-1.856-5.846-2.31-11.324-3.093-16.043-3.118-4.707 0.025-10.185 0.808-16.043 3.118 0 0 0.266 0.694 0.898 1.856 5.352-2.335 10.578-3.067 15.145-3.030z"></path>
</symbol>
<symbol id="icon-x" viewBox="0 0 32 32">
<path stroke-linejoin="round" stroke-linecap="round" stroke-miterlimit="4" stroke-width="2.4" d="M24 8l-16 16"></path>
<path stroke-linejoin="round" stroke-linecap="round" stroke-miterlimit="4" stroke-width="2.4" d="M8 8l16 16"></path>
</symbol>
<symbol id="icon-Vector-4" viewBox="0 0 4 32">
<path stroke-linejoin="miter" stroke-linecap="butt" stroke-miterlimit="4" stroke-width="2" d="M2 0v32"></path>
</symbol>
<symbol id="icon-down" viewBox="0 0 32 32">
<path stroke-linejoin="round" stroke-linecap="round" stroke-miterlimit="4" stroke-width="3.2" d="M8 12l8 8 8-8"></path>
</symbol>
<symbol id="icon-activeheart" viewBox="0 0 32 32">
<path fill="#3470ff" style="fill: var(--color1, #3470ff); stroke: var(--color1, #3470ff)" stroke="#3470ff" stroke-linejoin="round" stroke-linecap="round" stroke-miterlimit="4" stroke-width="1.7778" d="M27.787 6.147c-0.681-0.681-1.49-1.222-2.38-1.591s-1.844-0.559-2.807-0.559c-0.963 0-1.917 0.19-2.807 0.559s-1.698 0.909-2.38 1.591l-1.413 1.413-1.413-1.413c-1.376-1.376-3.241-2.148-5.187-2.148s-3.811 0.773-5.187 2.148c-1.376 1.376-2.148 3.241-2.148 5.187s0.773 3.811 2.148 5.187l11.787 11.787 11.787-11.787c0.681-0.681 1.222-1.49 1.591-2.38s0.559-1.844 0.559-2.807c0-0.963-0.19-1.917-0.559-2.807s-0.909-1.699-1.591-2.38z"></path>
</symbol>
<symbol id="icon-normalheart" viewBox="0 0 32 32">
<path fill="none" stroke="#fff" style="stroke: var(--color2, #fff)" stroke-linejoin="round" stroke-linecap="round" stroke-miterlimit="4" stroke-width="2.6667" d="M27.787 6.147c-0.681-0.681-1.49-1.222-2.38-1.591s-1.844-0.559-2.807-0.559c-0.963 0-1.917 0.19-2.807 0.559s-1.698 0.909-2.38 1.591l-1.413 1.413-1.413-1.413c-1.376-1.376-3.241-2.148-5.187-2.148s-3.811 0.773-5.187 2.148c-1.376 1.376-2.148 3.241-2.148 5.187s0.773 3.811 2.148 5.187l11.787 11.787 11.787-11.787c0.681-0.681 1.222-1.49 1.591-2.38s0.559-1.844 0.559-2.807c0-0.963-0.19-1.917-0.559-2.807s-0.909-1.699-1.591-2.38z"></path>
</symbol>
<symbol id="icon-face" viewBox="0 0 32 32">
<path fill="none" stroke="#000" stroke-linejoin="round" stroke-linecap="round" stroke-miterlimit="4" stroke-width="2.6667" d="M20 12h0.013M12 12h0.013M29.333 16c0 7.364-5.97 13.333-13.333 13.333s-13.333-5.97-13.333-13.333c0-7.364 5.97-13.333 13.333-13.333s13.333 5.97 13.333 13.333zM20.667 12c0 0.368-0.299 0.667-0.667 0.667s-0.667-0.298-0.667-0.667c0-0.368 0.299-0.667 0.667-0.667s0.667 0.298 0.667 0.667zM12.667 12c0 0.368-0.298 0.667-0.667 0.667s-0.667-0.298-0.667-0.667c0-0.368 0.298-0.667 0.667-0.667s0.667 0.298 0.667 0.667zM16 23.333c3.334 0 6-2.444 6-4.667h-12c0 2.223 2.666 4.667 6 4.667z"></path>
</symbol>
<symbol id="icon-search" viewBox="0 0 32 32">
<path fill="none" stroke="#000" stroke-linejoin="round" stroke-linecap="round" stroke-miterlimit="4" stroke-width="2.6667" d="M28 28l-4.667-4.667M26.667 15.333c0 6.259-5.074 11.333-11.333 11.333s-11.333-5.074-11.333-11.333c0-6.259 5.074-11.333 11.333-11.333s11.333 5.074 11.333 11.333z"></path>
</symbol>
<symbol id="icon-calendar" viewBox="0 0 32 32">
<path fill="none" stroke="#000" stroke-linejoin="round" stroke-linecap="round" stroke-miterlimit="4" stroke-width="2.6667" d="M28 13.333h-24M28 16.667v-4.933c0-2.24 0-3.36-0.436-4.216-0.383-0.753-0.995-1.365-1.748-1.748-0.856-0.436-1.976-0.436-4.216-0.436h-11.2c-2.24 0-3.36 0-4.216 0.436-0.753 0.383-1.365 0.995-1.748 1.748-0.436 0.856-0.436 1.976-0.436 4.216v11.2c0 2.24 0 3.36 0.436 4.216 0.383 0.753 0.995 1.365 1.748 1.748 0.856 0.436 1.976 0.436 4.216 0.436h5.6M21.333 2.667v5.333M10.667 2.667v5.333M19.333 25.333l2.667 2.667 6-6"></path>
</symbol>
</defs>
</svg>
